<svg width="31" height="31" viewBox="0 0 31 31" fill="none" xmlns="http://www.w3.org/2000/svg">
<g clip-path="url(#clip0)">
<path d="M28.4166 3.07089H2.58331C1.51326 3.07089 0.645813 3.93834 0.645813 5.00839V28.2146C0.645813 29.2847 1.51326 30.1521 2.58331 30.1521H28.4166C29.4867 30.1521 30.3541 29.2847 30.3541 28.2146V5.00839C30.3541 3.93834 29.4867 3.07089 28.4166 3.07089Z" stroke="#746871" stroke-width="2"/>
<path d="M31 9.68866H0V10.7409H31V9.68866Z" fill="#746871"/>
<path d="M6.72864 0C6.46565 0 6.21342 0.102842 6.02744 0.285902C5.84148 0.468962 5.737 0.717243 5.737 0.976132V5.56637C5.737 5.82526 5.84148 6.07354 6.02744 6.2566C6.21342 6.43966 6.46565 6.54248 6.72864 6.54248C6.99162 6.54248 7.24388 6.43966 7.42988 6.2566C7.61582 6.07354 7.72032 5.82526 7.72032 5.56637V0.976132C7.72032 0.717243 7.61582 0.468962 7.42988 0.285902C7.24388 0.102842 6.99162 0 6.72864 0Z" fill="#746871"/>
<path d="M23.9889 0C23.7259 0 23.4736 0.102842 23.2877 0.285902C23.1017 0.468962 22.9972 0.717243 22.9972 0.976132V5.56637C22.9972 5.82526 23.1017 6.07354 23.2877 6.2566C23.4736 6.43966 23.7259 6.54248 23.9889 6.54248C24.2519 6.54248 24.5041 6.43966 24.6901 6.2566C24.8761 6.07354 24.9805 5.82526 24.9805 5.56637V0.976132C24.9805 0.717243 24.8761 0.468962 24.6901 0.285902C24.5041 0.102842 24.2519 0 23.9889 0Z" fill="#746871"/>
<path d="M15.2352 15.2711C15.0391 15.2711 14.8474 15.3284 14.6843 15.4357C14.5213 15.5429 14.3942 15.6954 14.3191 15.8737C14.244 16.0521 14.2244 16.2483 14.2627 16.4377C14.3009 16.627 14.3954 16.801 14.5341 16.9375C14.6727 17.074 14.8494 17.167 15.0418 17.2046C15.2341 17.2423 15.4336 17.223 15.6147 17.1491C15.7959 17.0752 15.9508 16.9501 16.0598 16.7896C16.1687 16.629 16.2269 16.4403 16.2269 16.2473C16.2269 15.9884 16.1224 15.7401 15.9365 15.557C15.7505 15.374 15.4983 15.2711 15.2352 15.2711Z" fill="#746871"/>
<path d="M15.2352 18.603C15.0391 18.603 14.8474 18.6603 14.6843 18.7675C14.5213 18.8747 14.3942 19.0272 14.3191 19.2056C14.244 19.3839 14.2244 19.5802 14.2627 19.7695C14.3009 19.9589 14.3954 20.1328 14.5341 20.2693C14.6727 20.4059 14.8494 20.4988 15.0418 20.5365C15.2341 20.5742 15.4336 20.5548 15.6147 20.4809C15.7959 20.407 15.9508 20.2819 16.0598 20.1214C16.1687 19.9609 16.2269 19.7722 16.2269 19.5791C16.2269 19.3202 16.1224 19.072 15.9365 18.8889C15.7505 18.7058 15.4983 18.603 15.2352 18.603Z" fill="#746871"/>
<path d="M15.2352 21.9266C15.0391 21.9266 14.8474 21.9839 14.6843 22.0911C14.5213 22.1983 14.3942 22.3508 14.3191 22.5292C14.244 22.7075 14.2244 22.9038 14.2627 23.0931C14.3009 23.2825 14.3954 23.4564 14.5341 23.593C14.6727 23.7295 14.8494 23.8224 15.0418 23.8601C15.2341 23.8977 15.4336 23.8784 15.6147 23.8045C15.7959 23.7306 15.9508 23.6055 16.0598 23.445C16.1687 23.2845 16.2269 23.0958 16.2269 22.9027C16.2269 22.6438 16.1224 22.3956 15.9365 22.2125C15.7505 22.0295 15.4983 21.9266 15.2352 21.9266Z" fill="#746871"/>
<path d="M15.2352 25.2585C15.0391 25.2585 14.8474 25.3157 14.6843 25.423C14.5213 25.5303 14.3942 25.6827 14.3191 25.861C14.244 26.0394 14.2244 26.2357 14.2627 26.425C14.3009 26.6143 14.3954 26.7883 14.5341 26.9248C14.6727 27.0613 14.8494 27.1543 15.0418 27.1919C15.2341 27.2296 15.4336 27.2103 15.6147 27.1364C15.7959 27.0625 15.9508 26.9374 16.0598 26.7769C16.1687 26.6163 16.2269 26.4276 16.2269 26.2346C16.2269 25.9757 16.1224 25.7274 15.9365 25.5443C15.7505 25.3613 15.4983 25.2585 15.2352 25.2585Z" fill="#746871"/>
<path d="M10.1627 15.2712C9.96593 15.2681 9.77257 15.3226 9.60736 15.4279C9.44216 15.5332 9.31248 15.6845 9.23491 15.8625C9.15735 16.0406 9.13539 16.2374 9.17175 16.4277C9.20817 16.6181 9.3013 16.7936 9.43925 16.9318C9.57727 17.0698 9.75397 17.1644 9.94675 17.2035C10.1395 17.2424 10.3397 17.2241 10.5219 17.1507C10.7041 17.0773 10.8599 16.9522 10.9696 16.7913C11.0793 16.6305 11.1379 16.4412 11.1379 16.2474C11.1379 15.9885 11.0335 15.7403 10.8475 15.5572C10.6616 15.3741 10.4093 15.2712 10.1463 15.2712H10.1627Z" fill="#746871"/>
<path d="M10.1627 18.603C9.96593 18.5998 9.77257 18.6543 9.60736 18.7595C9.44216 18.8649 9.31248 19.0162 9.23491 19.1942C9.15735 19.3722 9.13539 19.569 9.17175 19.7594C9.20817 19.9498 9.3013 20.1252 9.43925 20.2634C9.57727 20.4015 9.75397 20.4961 9.94675 20.5351C10.1395 20.5741 10.3397 20.5557 10.5219 20.4823C10.7041 20.4089 10.8599 20.2838 10.9696 20.123C11.0793 19.9621 11.1379 19.7728 11.1379 19.5791C11.1379 19.3202 11.0335 19.0719 10.8475 18.8888C10.6616 18.7058 10.4093 18.603 10.1463 18.603H10.1627Z" fill="#746871"/>
<path d="M10.1627 21.9267C9.96593 21.9235 9.77257 21.978 9.60736 22.0833C9.44216 22.1886 9.31248 22.3399 9.23491 22.5179C9.15735 22.696 9.13539 22.8928 9.17175 23.0832C9.20817 23.2736 9.3013 23.449 9.43925 23.5871C9.57727 23.7253 9.75397 23.8199 9.94675 23.8588C10.1395 23.8978 10.3397 23.8795 10.5219 23.806C10.7041 23.7327 10.8599 23.6076 10.9696 23.4468C11.0793 23.2859 11.1379 23.0965 11.1379 22.9029C11.1379 22.6439 11.0335 22.3957 10.8475 22.2126C10.6616 22.0296 10.4093 21.9267 10.1463 21.9267H10.1627Z" fill="#746871"/>
<path d="M10.1627 25.2584C9.96593 25.2552 9.77257 25.3097 9.60736 25.415C9.44216 25.5203 9.31248 25.6716 9.23491 25.8497C9.15735 26.0277 9.13539 26.2244 9.17175 26.4148C9.20817 26.6052 9.3013 26.7807 9.43925 26.9188C9.57727 27.0569 9.75397 27.1515 9.94675 27.1905C10.1395 27.2295 10.3397 27.2111 10.5219 27.1378C10.7041 27.0644 10.8599 26.9393 10.9696 26.7784C11.0793 26.6176 11.1379 26.4283 11.1379 26.2345C11.1379 25.9756 11.0335 25.7273 10.8475 25.5443C10.6616 25.3612 10.4093 25.2584 10.1463 25.2584H10.1627Z" fill="#746871"/>
<path d="M5.08937 18.603C4.89324 18.603 4.70151 18.6603 4.53843 18.7675C4.37536 18.8747 4.24826 19.0272 4.1732 19.2056C4.09814 19.3839 4.07851 19.5802 4.11677 19.7695C4.15504 19.9589 4.24948 20.1328 4.38816 20.2693C4.52685 20.4059 4.70355 20.4988 4.89591 20.5365C5.08827 20.5742 5.28765 20.5548 5.46886 20.4809C5.65006 20.407 5.80493 20.2819 5.9139 20.1214C6.02286 19.9609 6.08102 19.7722 6.08102 19.5791C6.08102 19.3202 5.97654 19.072 5.79057 18.8889C5.6046 18.7058 5.35237 18.603 5.08937 18.603Z" fill="#746871"/>
<path d="M5.08937 21.9266C4.89324 21.9266 4.70151 21.9839 4.53843 22.0911C4.37536 22.1983 4.24826 22.3508 4.1732 22.5292C4.09814 22.7075 4.07851 22.9038 4.11677 23.0931C4.15504 23.2825 4.24948 23.4564 4.38816 23.593C4.52685 23.7295 4.70355 23.8224 4.89591 23.8601C5.08827 23.8977 5.28765 23.8784 5.46886 23.8045C5.65006 23.7306 5.80493 23.6055 5.9139 23.445C6.02286 23.2845 6.08102 23.0958 6.08102 22.9027C6.08102 22.6438 5.97654 22.3956 5.79057 22.2125C5.6046 22.0295 5.35237 21.9266 5.08937 21.9266Z" fill="#746871"/>
<path d="M5.08937 25.2585C4.89324 25.2585 4.70151 25.3157 4.53843 25.423C4.37536 25.5303 4.24826 25.6827 4.1732 25.861C4.09814 26.0394 4.07851 26.2357 4.11677 26.425C4.15504 26.6143 4.24948 26.7883 4.38816 26.9248C4.52685 27.0613 4.70355 27.1543 4.89591 27.1919C5.08827 27.2296 5.28765 27.2103 5.46886 27.1364C5.65006 27.0625 5.80493 26.9374 5.9139 26.7769C6.02286 26.6163 6.08102 26.4276 6.08102 26.2346C6.08102 25.9757 5.97654 25.7274 5.79057 25.5443C5.6046 25.3613 5.35237 25.2585 5.08937 25.2585Z" fill="#746871"/>
<path d="M20.3088 15.2711C20.1127 15.2711 19.9209 15.3284 19.7578 15.4357C19.5948 15.5429 19.4677 15.6954 19.3926 15.8737C19.3176 16.0521 19.2979 16.2483 19.3362 16.4377C19.3745 16.627 19.4689 16.801 19.6076 16.9375C19.7463 17.074 19.923 17.167 20.1153 17.2046C20.3077 17.2423 20.5071 17.223 20.6883 17.1491C20.8694 17.0752 21.0243 16.9501 21.1333 16.7896C21.2423 16.629 21.3004 16.4403 21.3004 16.2473C21.3004 15.9884 21.196 15.7401 21.01 15.557C20.824 15.374 20.5718 15.2711 20.3088 15.2711Z" fill="#746871"/>
<path d="M20.3088 18.603C20.1127 18.603 19.9209 18.6603 19.7578 18.7675C19.5948 18.8747 19.4677 19.0272 19.3926 19.2056C19.3176 19.3839 19.2979 19.5802 19.3362 19.7695C19.3745 19.9589 19.4689 20.1328 19.6076 20.2693C19.7463 20.4059 19.923 20.4988 20.1153 20.5365C20.3077 20.5742 20.5071 20.5548 20.6883 20.4809C20.8694 20.407 21.0243 20.2819 21.1333 20.1214C21.2423 19.9609 21.3004 19.7722 21.3004 19.5791C21.3004 19.3202 21.196 19.072 21.01 18.8889C20.824 18.7058 20.5718 18.603 20.3088 18.603Z" fill="#746871"/>
<path d="M20.3088 21.9266C20.1127 21.9266 19.9209 21.9839 19.7578 22.0911C19.5948 22.1983 19.4677 22.3508 19.3926 22.5292C19.3176 22.7075 19.2979 22.9038 19.3362 23.0931C19.3745 23.2825 19.4689 23.4564 19.6076 23.593C19.7463 23.7295 19.923 23.8224 20.1153 23.8601C20.3077 23.8977 20.5071 23.8784 20.6883 23.8045C20.8694 23.7306 21.0243 23.6055 21.1333 23.445C21.2423 23.2845 21.3004 23.0958 21.3004 22.9027C21.3004 22.6438 21.196 22.3956 21.01 22.2125C20.824 22.0295 20.5718 21.9266 20.3088 21.9266Z" fill="#746871"/>
<path d="M25.381 15.2711C25.1848 15.2711 24.9932 15.3284 24.8301 15.4357C24.667 15.5429 24.5399 15.6954 24.4648 15.8737C24.3898 16.0521 24.3701 16.2483 24.4084 16.4377C24.4467 16.627 24.5411 16.801 24.6798 16.9375C24.8185 17.074 24.9952 17.167 25.1876 17.2046C25.3799 17.2423 25.5793 17.223 25.7605 17.1491C25.9417 17.0752 26.0966 16.9501 26.2055 16.7896C26.3145 16.629 26.3727 16.4403 26.3727 16.2473C26.3727 15.9884 26.2682 15.7401 26.0822 15.557C25.8962 15.374 25.644 15.2711 25.381 15.2711Z" fill="#746871"/>
<path d="M25.381 18.603C25.1848 18.603 24.9932 18.6603 24.8301 18.7675C24.667 18.8747 24.5399 19.0272 24.4648 19.2056C24.3898 19.3839 24.3701 19.5802 24.4084 19.7695C24.4467 19.9589 24.5411 20.1328 24.6798 20.2693C24.8185 20.4059 24.9952 20.4988 25.1876 20.5365C25.3799 20.5742 25.5793 20.5548 25.7605 20.4809C25.9417 20.407 26.0966 20.2819 26.2055 20.1214C26.3145 19.9609 26.3727 19.7722 26.3727 19.5791C26.3727 19.3202 26.2682 19.072 26.0822 18.8889C25.8962 18.7058 25.644 18.603 25.381 18.603Z" fill="#746871"/>
<path d="M25.381 21.9266C25.1848 21.9266 24.9932 21.9839 24.8301 22.0911C24.667 22.1983 24.5399 22.3508 24.4648 22.5292C24.3898 22.7075 24.3701 22.9038 24.4084 23.0931C24.4467 23.2825 24.5411 23.4564 24.6798 23.593C24.8185 23.7295 24.9952 23.8224 25.1876 23.8601C25.3799 23.8977 25.5793 23.8784 25.7605 23.8045C25.9417 23.7306 26.0966 23.6055 26.2055 23.445C26.3145 23.2845 26.3727 23.0958 26.3727 22.9027C26.3727 22.6438 26.2682 22.3956 26.0822 22.2125C25.8962 22.0295 25.644 21.9266 25.381 21.9266Z" fill="#746871"/>
</g>
<defs>
<clipPath id="clip0">
<rect width="31" height="31" fill="white"/>
</clipPath>
</defs>
</svg>
