<svg width="32" height="32" viewBox="0 0 32 32" fill="none" xmlns="http://www.w3.org/2000/svg">
<path d="M15.9867 2.66675C8.62669 2.66675 2.66669 8.64008 2.66669 16.0001C2.66669 23.3601 8.62669 29.3334 15.9867 29.3334C23.36 29.3334 29.3334 23.3601 29.3334 16.0001C29.3334 8.64008 23.36 2.66675 15.9867 2.66675ZM16 26.6667C10.1067 26.6667 5.33335 21.8934 5.33335 16.0001C5.33335 10.1067 10.1067 5.33341 16 5.33341C21.8934 5.33341 26.6667 10.1067 26.6667 16.0001C26.6667 21.8934 21.8934 26.6667 16 26.6667Z" fill="#9A157D"/>
<path d="M16.6667 9.33325H14.6667V17.3333L21.6667 21.5333L22.6667 19.8933L16.6667 16.3333V9.33325Z" fill="#9A157D"/>
</svg>
