<svg width="42" height="42" viewBox="0 0 42 42" fill="none" xmlns="http://www.w3.org/2000/svg">
<path d="M21.7902 3.49998C12.1302 3.49998 4.30768 11.34 4.30768 21C4.30768 30.66 12.1302 38.5 21.7902 38.5C31.4677 38.5 39.3077 30.66 39.3077 21C39.3077 11.34 31.4677 3.49998 21.7902 3.49998ZM21.8077 35C14.0727 35 7.80768 28.735 7.80768 21C7.80768 13.265 14.0727 6.99998 21.8077 6.99998C29.5427 6.99998 35.8077 13.265 35.8077 21C35.8077 28.735 29.5427 35 21.8077 35Z" fill="#746871"/>
<path d="M21.875 12.25H19.25V22.75L28.4375 28.2625L29.75 26.11L21.875 21.4375V12.25Z" fill="#746871"/>
</svg>
