<svg width="24" height="23" viewBox="0 0 24 23" fill="none" xmlns="http://www.w3.org/2000/svg">
<path d="M12.1161 10.0315C12.1161 10.0315 2.65256 15.1085 1.90341 16.0522C0.906376 17.2718 0.520784 19.9151 1.87036 21.1844C3.21993 22.4536 5.66568 22.2549 6.99322 21.1844C7.94068 20.4118 13.003 10.9365 13.003 10.9365" stroke="#9A157D" stroke-width="0.8" stroke-miterlimit="10"/>
<path d="M1.81499 20.7815C1.81499 20.7815 1.26415 18.3755 2.15652 16.9958C3.20312 15.4452 12.3306 10.4785 12.3306 10.4785L12.573 10.7324C12.573 10.7324 7.60989 19.8599 6.051 20.9085C4.67939 21.8245 2.2777 21.2506 2.2777 21.2506L1.93067 21.1678L1.81499 20.7815Z" stroke="#9A157D" stroke-width="0.8" stroke-miterlimit="10"/>
<path d="M4.04583 17.8568C5.69837 16.3116 12.2424 10.6497 12.2424 10.6497C12.2424 10.6497 4.13947 15.9971 2.93312 17.4264C2.10134 18.4583 1.98566 20.5222 1.98566 20.5222V20.903C1.97997 20.9299 1.98127 20.9577 1.98943 20.9839C1.99758 21.0101 2.01233 21.0337 2.03224 21.0526C2.05215 21.0714 2.07657 21.0848 2.10314 21.0915C2.12971 21.0982 2.15754 21.0979 2.18397 21.0906H2.61363C2.61363 21.0906 4.58566 21.0023 5.61574 20.147C7.05896 18.9219 12.3912 10.8042 12.3912 10.8042C12.3912 10.8042 6.73947 17.3822 5.19159 19.0157C4.37299 19.9376 3.3426 20.646 2.18947 21.0796L2.01871 20.9085C2.42216 19.734 3.1202 18.6832 4.04583 17.8568V17.8568Z" stroke="#9A157D" stroke-width="0.8" stroke-miterlimit="10"/>
<path d="M22.825 0.368666C24.0369 1.76484 19.6522 4.74482 18.253 6.0527C17.6441 6.77505 16.991 7.45882 16.2975 8.10006C15.4028 8.74554 14.5611 9.46154 13.7801 10.2412C13.4056 10.7103 12.7501 11.8968 12.4746 12.1065C12.1992 12.3162 11.4666 11.6429 11.4666 11.6429L11.384 11.5822C11.384 11.5822 10.7284 10.8372 10.9157 10.5558C11.103 10.2743 12.3149 9.62316 12.7831 9.25343C13.5592 8.46948 14.2755 7.62831 14.9259 6.737C15.5675 6.04012 16.2519 5.38398 16.975 4.77242C18.2805 3.37624 21.2661 -0.999919 22.6653 0.20863L22.825 0.368666Z" fill="#9A157D"/>
<path d="M12.7441 10.3293L2.10181 20.9911" stroke="#9A157D" stroke-width="0.8" stroke-miterlimit="10"/>
</svg>
