<svg width="34" height="26" viewBox="0 0 34 26" fill="none" xmlns="http://www.w3.org/2000/svg">
<path d="M2.32721 3.08337H0.778625V25.48H33.2988V3.08337H31.7744" stroke="#746871" stroke-miterlimit="10" stroke-linejoin="round"/>
<path d="M31.7502 23.4981C31.7502 23.4981 21.1115 19.5852 17.2968 24.1715V24.035C17.2968 24.035 17.2968 12.1507 17.2968 3.23289C21.1026 -1.36251 31.7502 2.5595 31.7502 2.5595V23.4981Z" stroke="#746871" stroke-miterlimit="10"/>
<path d="M19.0132 8.67455C19.0132 8.67455 22.0313 8.13765 25.4477 8.53805C28.7137 8.92935 30.0502 9.34795 30.0502 9.34795" stroke="#746871" stroke-width="2" stroke-miterlimit="10" stroke-linecap="round"/>
<path d="M19.0136 5.53522C19.0136 5.53522 22.0317 4.99832 25.4482 5.39872C28.7141 5.79002 30.0506 6.20862 30.0506 6.20862" stroke="#746871" stroke-width="2" stroke-miterlimit="10" stroke-linecap="round"/>
<path d="M19.0132 14.9533C19.0132 14.9533 22.0313 14.4164 25.4477 14.8168C28.7137 15.2081 30.0502 15.6267 30.0502 15.6267" stroke="#746871" stroke-width="2" stroke-miterlimit="10" stroke-linecap="round"/>
<path d="M19.0132 18.0929C19.0132 18.0929 22.0313 17.556 25.4477 17.9564C28.7137 18.3477 30.0502 18.7663 30.0502 18.7663" stroke="#746871" stroke-width="2" stroke-miterlimit="10" stroke-linecap="round"/>
<path d="M19.0132 11.8139C19.0132 11.8139 22.0313 11.277 25.4477 11.6774C28.7137 12.0687 30.0502 12.4873 30.0502 12.4873" stroke="#746871" stroke-width="2" stroke-miterlimit="10" stroke-linecap="round"/>
<path d="M2.32727 23.4981C2.32727 23.4981 12.966 19.5852 16.7807 24.1715V24.035C16.7807 24.035 16.7807 12.1507 16.7807 3.23289C12.9748 -1.36251 2.32727 2.5595 2.32727 2.5595V23.4981Z" stroke="#746871" stroke-miterlimit="10"/>
<path d="M15.4004 8.67472C15.4004 8.67472 12.2967 8.13782 8.78352 8.53822C5.42503 8.92952 4.05069 9.34811 4.05069 9.34811" stroke="#746871" stroke-width="2" stroke-miterlimit="10" stroke-linecap="round"/>
<path d="M15.4002 5.53522C15.4002 5.53522 12.2966 4.99832 8.78333 5.39872C5.42483 5.79002 4.05049 6.20862 4.05049 6.20862" stroke="#746871" stroke-width="2" stroke-miterlimit="10" stroke-linecap="round"/>
<path d="M15.4004 14.9533C15.4004 14.9533 12.2967 14.4164 8.78352 14.8168C5.42503 15.2081 4.05069 15.6267 4.05069 15.6267" stroke="#746871" stroke-width="2" stroke-miterlimit="10" stroke-linecap="round"/>
<path d="M15.4004 18.0929C15.4004 18.0929 12.2967 17.556 8.78352 17.9564C5.42503 18.3477 4.05069 18.7663 4.05069 18.7663" stroke="#746871" stroke-width="2" stroke-miterlimit="10" stroke-linecap="round"/>
<path d="M15.4004 11.814C15.4004 11.814 12.2967 11.2771 8.78352 11.6775C5.42503 12.0688 4.05069 12.4874 4.05069 12.4874" stroke="#746871" stroke-width="2" stroke-miterlimit="10" stroke-linecap="round"/>
</svg>
