<svg width="40" height="40" viewBox="0 0 40 40" fill="none" xmlns="http://www.w3.org/2000/svg">
<path d="M20 0C8.95192 0 0 8.95192 0 20C0 31.0481 8.95192 40 20 40C31.0481 40 40 31.0481 40 20C40 8.95192 31.0481 0 20 0ZM20 38.3365C14.3654 38.3365 9.31731 35.7788 5.95192 31.7692C7.66346 31.0288 11.9327 29.4904 14.6346 28.7019C14.8462 28.6346 14.8846 28.625 14.8846 27.6731C14.8846 26.6538 14.7692 25.9327 14.5192 25.4038C14.1827 24.6827 13.7788 23.4615 13.6346 22.3654C13.2308 21.8942 12.6827 20.9712 12.3269 19.2019C12.0192 17.6442 12.1635 17.0769 12.3654 16.5481C12.3846 16.4904 12.4135 16.4327 12.4231 16.375C12.5 16.0192 12.3942 14.1154 12.125 12.6442C11.9423 11.6346 12.1731 9.49038 13.5673 7.71154C14.4423 6.58654 16.125 5.21154 19.1442 5.01923H20.8269C23.8942 5.21154 25.5769 6.58654 26.4519 7.71154C27.8462 9.49038 28.0769 11.6346 27.8846 12.6442C27.6154 14.1154 27.5096 16.0096 27.5865 16.375C27.5962 16.4327 27.625 16.4904 27.6442 16.5385C27.8462 17.0673 28 17.6346 27.6827 19.1923C27.3269 20.9615 26.7788 21.8846 26.375 22.3558C26.2308 23.4519 25.8269 24.6635 25.4904 25.3942C25.1731 26.0577 24.8558 26.8462 24.8558 27.6346C24.8558 28.5865 24.8942 28.5962 25.1154 28.6635C27.6827 29.4231 32.1058 30.9519 34.0577 31.75C30.6923 35.7692 25.6442 38.3365 20 38.3365Z" fill="#5D1049"/>
</svg>
