<svg width="31" height="31" viewBox="0 0 31 31" fill="none" xmlns="http://www.w3.org/2000/svg">
<path d="M15.5 0C6.93774 0 0 6.93774 0 15.5C0 24.0623 6.93774 31 15.5 31C24.0623 31 31 24.0623 31 15.5C31 6.93774 24.0623 0 15.5 0ZM15.5 29.7108C11.1332 29.7108 7.22091 27.7286 4.61274 24.6212C5.93918 24.0474 9.24784 22.855 11.3418 22.244C11.5058 22.1918 11.5356 22.1844 11.5356 21.4466C11.5356 20.6567 11.4462 20.0978 11.2524 19.688C10.9916 19.1291 10.6786 18.1827 10.5668 17.3332C10.2538 16.968 9.82909 16.2526 9.55337 14.8815C9.3149 13.6743 9.42668 13.2346 9.58317 12.8248C9.59808 12.78 9.62043 12.7353 9.62788 12.6906C9.6875 12.4149 9.60553 10.9394 9.39688 9.79928C9.25529 9.01683 9.43413 7.35505 10.5147 5.97644C11.1928 5.10457 12.4969 4.03894 14.8368 3.8899H16.1409C18.518 4.03894 19.8221 5.10457 20.5002 5.97644C21.5808 7.35505 21.7596 9.01683 21.6106 9.79928C21.4019 10.9394 21.32 12.4075 21.3796 12.6906C21.387 12.7353 21.4094 12.78 21.4243 12.8173C21.5808 13.2272 21.7 13.6668 21.4541 14.874C21.1784 16.2452 20.7536 16.9606 20.4406 17.3257C20.3288 18.1752 20.0159 19.1142 19.755 19.6805C19.5091 20.1947 19.2632 20.8058 19.2632 21.4168C19.2632 22.1546 19.293 22.162 19.4644 22.2142C21.4541 22.8029 24.882 23.9877 26.3947 24.6063C23.7865 27.7212 19.8743 29.7108 15.5 29.7108Z" fill="white"/>
</svg>
