<svg width="13" height="10" viewBox="0 0 13 10" fill="none" xmlns="http://www.w3.org/2000/svg">
<path d="M11.0833 2.33333H9.33333V0H1.16667C0.525 0 0 0.525 0 1.16667V7.58333H1.16667C1.16667 8.55167 1.94833 9.33333 2.91667 9.33333C3.885 9.33333 4.66667 8.55167 4.66667 7.58333H8.16667C8.16667 8.55167 8.94833 9.33333 9.91667 9.33333C10.885 9.33333 11.6667 8.55167 11.6667 7.58333H12.8333V4.66667L11.0833 2.33333ZM2.91667 8.45833C2.4325 8.45833 2.04167 8.0675 2.04167 7.58333C2.04167 7.09917 2.4325 6.70833 2.91667 6.70833C3.40083 6.70833 3.79167 7.09917 3.79167 7.58333C3.79167 8.0675 3.40083 8.45833 2.91667 8.45833ZM10.7917 3.20833L11.935 4.66667H9.33333V3.20833H10.7917ZM9.91667 8.45833C9.4325 8.45833 9.04167 8.0675 9.04167 7.58333C9.04167 7.09917 9.4325 6.70833 9.91667 6.70833C10.4008 6.70833 10.7917 7.09917 10.7917 7.58333C10.7917 8.0675 10.4008 8.45833 9.91667 8.45833Z" fill="#746871"/>
</svg>
