<svg width="33" height="30" viewBox="0 0 33 30" fill="none" xmlns="http://www.w3.org/2000/svg">
<path d="M28.6373 15.1638C30.7256 15.7099 31.9647 16.397 31.9647 17.1457C31.9647 18.9249 24.9807 20.3607 16.3678 20.3607C7.75491 20.3607 0.770996 18.9249 0.770996 17.1457C0.770996 16.397 2.01874 15.7099 4.09832 15.1638" stroke="#746871" stroke-width="1.4" stroke-miterlimit="10"/>
<path d="M0.770996 17.1104V25.8483C0.770996 27.6276 7.75491 29.0634 16.3678 29.0634C24.9807 29.0634 31.9647 27.6276 31.9647 25.8483V17.1104" stroke="#746871" stroke-width="1.4" stroke-miterlimit="10"/>
<path d="M24.3482 6.80467C26.9737 7.27152 28.6373 7.95857 28.6373 8.7249C28.6373 10.1254 23.1438 11.2529 16.3678 11.2529C9.59188 11.2529 4.09833 10.1254 4.09833 8.7249C4.09833 7.95857 5.76199 7.27152 8.38746 6.80467" stroke="#746871" stroke-width="1.4" stroke-miterlimit="10"/>
<path d="M4.09814 8.69847V15.5689C4.09814 16.9694 9.59169 18.0969 16.3676 18.0969C23.1436 18.0969 28.6371 16.9606 28.6371 15.5689V8.69847" stroke="#746871" stroke-width="1.4" stroke-miterlimit="10"/>
<path d="M16.3676 4.2943C20.7751 4.2943 24.348 3.55684 24.348 2.64714C24.348 1.73744 20.7751 0.999985 16.3676 0.999985C11.9602 0.999985 8.38727 1.73744 8.38727 2.64714C8.38727 3.55684 11.9602 4.2943 16.3676 4.2943Z" stroke="#746871" stroke-width="1.4" stroke-miterlimit="10"/>
<path d="M8.38727 2.62071V7.09528C8.38727 8.00253 11.9572 8.74242 16.3676 8.74242C20.7781 8.74242 24.348 8.00253 24.348 7.09528V2.62071" stroke="#746871" stroke-width="1.4" stroke-miterlimit="10"/>
</svg>
